<?xml version="1.0" encoding="UTF-8"?>
<!DOCTYPE svg PUBLIC "-//W3C//DTD SVG 1.1//EN" "http://www.w3.org/Graphics/SVG/1.1/DTD/svg11.dtd">
<svg xmlns="http://www.w3.org/2000/svg" version="1.1" width="256px" height="256px" style="shape-rendering:geometricPrecision; text-rendering:geometricPrecision; image-rendering:optimizeQuality; fill-rule:evenodd; clip-rule:evenodd" xmlns:xlink="http://www.w3.org/1999/xlink">
<g><path style="opacity:0.989" fill="#6377e9" d="M 89.5,13.5 C 96.2305,13.2264 102.897,13.7264 109.5,15C 140.167,21.6667 170.833,28.3333 201.5,35C 202.672,35.4186 203.672,36.0853 204.5,37C 178.167,65.3333 151.833,93.6667 125.5,122C 122.448,123.211 119.281,124.045 116,124.5C 79.1047,116.588 42.2714,108.421 5.5,100C 29.8333,73 54.1667,46 78.5,19C 82.0167,16.6738 85.6834,14.8405 89.5,13.5 Z"/></g>
<g><path style="opacity:1" fill="#f8f9fe" d="M 145.5,59.5 C 141.56,60.7229 137.893,62.3896 134.5,64.5C 116.193,71.6589 98.1934,79.3256 80.5,87.5C 77.9029,87.5332 76.9029,88.5332 77.5,90.5C 82.9418,92.7958 88.6085,94.1291 94.5,94.5C 101.542,95.9834 108.542,97.9834 115.5,100.5C 112.272,102.272 109.272,104.272 106.5,106.5C 102.864,105.674 99.1974,105.008 95.5,104.5C 92.2365,103.518 88.9032,102.851 85.5,102.5C 83.4855,101.076 81.1522,100.41 78.5,100.5C 75.1667,99.8333 71.8333,99.1667 68.5,98.5C 65.1456,96.7424 61.479,95.7424 57.5,95.5C 55.5648,94.8505 53.5648,94.5172 51.5,94.5C 49.9275,93.3127 48.2608,92.3127 46.5,91.5C 49.3316,88.4992 51.9983,85.3325 54.5,82C 67.0529,77.0135 79.7196,72.0135 92.5,67C 105.244,61.4632 117.911,55.6299 130.5,49.5C 119.286,46.0748 107.953,43.0748 96.5,40.5C 95.479,39.9984 95.3123,39.3317 96,38.5C 97.8333,36.6667 99.6667,34.8333 101.5,33C 103.833,32.3333 106.167,32.3333 108.5,33C 126.222,37.2869 143.889,41.7869 161.5,46.5C 157.909,53.1012 152.576,57.4345 145.5,59.5 Z"/></g>
<g><path style="opacity:0.991" fill="#3e3a39" d="M 211.5,42.5 C 221.866,73.4286 232.366,104.429 243,135.5C 245.82,146.683 244.487,157.349 239,167.5C 222.418,191.429 203.584,213.596 182.5,234C 178.582,236.877 174.415,239.377 170,241.5C 157.949,208.684 146.283,175.684 135,142.5C 132.289,133.628 134.289,125.961 141,119.5C 164.706,93.9631 188.206,68.2964 211.5,42.5 Z"/></g>
<g><path style="opacity:1" fill="#909cef" d="M 145.5,59.5 C 145.196,60.1499 144.863,60.8165 144.5,61.5C 141.122,62.5905 137.789,63.5905 134.5,64.5C 137.893,62.3896 141.56,60.7229 145.5,59.5 Z"/></g>
<g><path style="opacity:1" fill="#a3adf2" d="M 80.5,87.5 C 79.1501,88.8235 79.3167,89.8235 81,90.5C 85.9063,90.8744 90.4063,92.2077 94.5,94.5C 88.6085,94.1291 82.9418,92.7958 77.5,90.5C 76.9029,88.5332 77.9029,87.5332 80.5,87.5 Z"/></g>
<g><path style="opacity:1" fill="#a2acf2" d="M 46.5,91.5 C 48.2608,92.3127 49.9275,93.3127 51.5,94.5C 49.7376,94.6427 48.0709,94.3094 46.5,93.5C 45.2267,92.7435 45.2267,92.0768 46.5,91.5 Z"/></g>
<g><path style="opacity:1" fill="#a5aff2" d="M 57.5,95.5 C 61.479,95.7424 65.1456,96.7424 68.5,98.5C 64.521,98.2576 60.8544,97.2576 57.5,95.5 Z"/></g>
<g><path style="opacity:1" fill="#a1acf2" d="M 78.5,100.5 C 81.1522,100.41 83.4855,101.076 85.5,102.5C 82.8478,102.59 80.5145,101.924 78.5,100.5 Z"/></g>
<g><path style="opacity:1" fill="#a3aef2" d="M 95.5,104.5 C 99.1974,105.008 102.864,105.674 106.5,106.5C 102.683,107.303 99.0164,106.637 95.5,104.5 Z"/></g>
<g><path style="opacity:0.987" fill="#6377e9" d="M 5.5,106.5 C 41.0559,114.645 76.7225,122.479 112.5,130C 119.798,131.297 124.631,135.464 127,142.5C 138.505,176.35 150.005,210.183 161.5,244C 156.167,244.667 150.833,244.667 145.5,244C 116.833,237.667 88.1667,231.333 59.5,225C 49.3527,222.855 42.186,217.021 38,207.5C 26.4494,174.016 15.6161,140.35 5.5,106.5 Z"/></g>
<g><path style="opacity:1" fill="#f6f6f6" d="M 173.5,110.5 C 175.223,112.253 176.723,114.253 178,116.5C 185.214,134.342 192.88,152.009 201,169.5C 208.011,161.656 215.178,153.99 222.5,146.5C 223.661,150.795 223.828,155.129 223,159.5C 212.621,170.376 202.455,181.376 192.5,192.5C 182.219,169.607 172.219,146.607 162.5,123.5C 165.814,118.854 169.481,114.521 173.5,110.5 Z"/></g>
<g><path style="opacity:1" fill="#f9f9fe" d="M 90.5,202.5 C 90.3059,200.088 88.9726,199.088 86.5,199.5C 86.4828,201.565 86.1495,203.565 85.5,205.5C 84.6623,210.037 82.9957,214.204 80.5,218C 73.0787,218.016 65.7454,217.183 58.5,215.5C 62.2128,202.918 66.8795,190.751 72.5,179C 61.2276,164.056 49.5609,149.39 37.5,135C 44.6354,135.427 51.6354,136.76 58.5,139C 64.8604,146.226 70.8604,153.726 76.5,161.5C 77.325,162.386 78.325,162.719 79.5,162.5C 81.5,156.5 83.5,150.5 85.5,144.5C 92.8084,145.962 100.142,147.295 107.5,148.5C 104.247,159.504 100.08,170.171 95,180.5C 94.3333,181.833 94.3333,183.167 95,184.5C 107.023,199.022 118.856,213.689 130.5,228.5C 123.769,228.927 117.103,228.094 110.5,226C 103.969,217.975 97.302,210.142 90.5,202.5 Z"/></g>
<g><path style="opacity:1" fill="#b2baf4" d="M 90.5,202.5 C 89.8501,202.196 89.1835,201.863 88.5,201.5C 87.8503,203.184 86.8503,204.517 85.5,205.5C 86.1495,203.565 86.4828,201.565 86.5,199.5C 88.9726,199.088 90.3059,200.088 90.5,202.5 Z"/></g>
</svg>
